# Blender 4.0.2
# www.blender.org
mtllib cube2.mtl
o Cube
v -0.500000 0.500000 0.500000
v -0.500000 -0.500000 0.500000
v -0.500000 0.500000 -0.500000
v -0.500000 -0.500000 -0.500000
v 0.500000 0.500000 0.500000
v 0.500000 -0.500000 0.500000
v 0.500000 0.500000 -0.500000
v 0.500000 -0.500000 -0.500000
v 0.500000 -0.500000 -0.500000
v 0.500000 0.500000 -0.500000
v 0.500000 -0.500000 0.500000
v 0.500000 0.500000 0.500000
v -0.500000 -0.500000 -0.500000
v -0.500000 0.500000 -0.500000
v -0.500000 -0.500000 0.500000
v -0.500000 0.500000 0.500000
vn -0.0000 1.0000 -0.0000
vn -0.0000 -0.0000 -1.0000
vn 1.0000 -0.0000 -0.0000
vn -0.0000 -1.0000 -0.0000
vn -1.0000 -0.0000 -0.0000
vn -0.0000 -0.0000 1.0000
s 0
usemtl Material
f 5//1 3//1 1//1
f 3//2 8//2 4//2
f 7//3 6//3 8//3
f 2//4 8//4 6//4
f 1//5 4//5 2//5
f 5//6 2//6 6//6
f 10//3 11//3 9//3
f 12//6 15//6 11//6
f 16//5 13//5 15//5
f 14//2 9//2 13//2
f 15//4 9//4 11//4
f 12//1 14//1 16//1
f 5//1 7//1 3//1
f 3//2 7//2 8//2
f 7//3 5//3 6//3
f 2//4 4//4 8//4
f 1//5 3//5 4//5
f 5//6 1//6 2//6
f 10//3 12//3 11//3
f 12//6 16//6 15//6
f 16//5 14//5 13//5
f 14//2 10//2 9//2
f 15//4 13//4 9//4
f 12//1 10//1 14//1
